<svg xmlns="http://www.w3.org/2000/svg" xmlns:xlink="http://www.w3.org/1999/xlink" xmlns:figma="http://www.figma.com/figma/ns" preserveAspectRatio="xMinYMin" id="Layer_1-1168240562" data-name="Layer 1" viewBox="0 0 115.89 27.13"><defs></defs><title>logo-mprb-v3</title><path d="M29.41,12.32A1.77,1.77,0,0,0,27.85,11,2,2,0,0,0,29,8.56c-.29-1.08-1.35-1.75-3.24-1.24l-3.11.84v8.59l3.94-1.06C28.84,15.09,29.79,13.75,29.41,12.32Zm-5-3L26,8.91c.78-.21,1.19,0,1.3.42.18.66-.28,1.12-1.18,1.36l-1.77.48Zm2.08,4.72-2.07.56V12.74l1.93-.52c.72-.19,1.18,0,1.3.46S27.35,13.83,26.47,14.07Z"></path><polygon points="4 16.27 6.21 12.01 6.22 17.62 8.01 17.14 8.01 8.55 5.97 9.1 3.89 13.29 1.82 10.21 -0.01 10.7 0 19.29 1.76 18.82 1.76 13.25 3.95 16.29 4 16.27"></polygon><path d="M11.69,11.08V9.19L24,5.89h0l1.7-.38a13.27,13.27,0,0,0-1.21-1.4A13.58,13.58,0,0,0,2.38,8l1.49.66a11.94,11.94,0,0,1,18.81-4L9.93,8,10,16.62l1.84-.47V12.82l2.59-.72,0,10.46,1.74-.47V15.76l1.31-.35,1.92,2.23,2-.54-2.1-2.37a3.75,3.75,0,0,0,1.6-1.46,2.73,2.73,0,0,0,.22-2.1A2.31,2.31,0,0,0,20,9.72a4,4,0,0,0-2.92-.11Zm4.16.54,1.61-.4a1.88,1.88,0,0,1,1.32,0,.91.91,0,0,1,.46.57,1.16,1.16,0,0,1-.1.9,2.7,2.7,0,0,1-1.61.95l-1.7.42Z"></path><path d="M11.85,19.75V18L3.08,20.34a13.91,13.91,0,0,0,1,1.52,13.54,13.54,0,0,0,23.32-3.31L25.87,18A11.95,11.95,0,0,1,8.45,23.7a12.06,12.06,0,0,1-2.66-2.36Z"></path><polygon class="cls-1" points="38.26 8.3 36.81 10.48 35.36 8.3 34.9 8.3 34.9 12.29 35.34 12.29 35.34 9.07 36.79 11.2 36.81 11.2 38.27 9.06 38.27 12.29 38.72 12.29 38.72 8.3 38.26 8.3"></polygon><path class="cls-1" d="M43.27,10.31h0a1.59,1.59,0,0,0-1.57-1.65,1.57,1.57,0,0,0-1.56,1.63h0a1.59,1.59,0,0,0,1.57,1.65,1.57,1.57,0,0,0,1.56-1.63m-3.6,0h0a2,2,0,1,1,4.07,0h0a2,2,0,1,1-4.07,0"></path><path class="cls-1" d="M44.62,10.62V8.3h.45v2.29a1.18,1.18,0,0,0,1.22,1.34c.73,0,1.2-.44,1.2-1.32V8.3h.45v2.28a1.66,1.66,0,1,1-3.32,0"></path><polygon class="cls-1" points="52.01 8.3 50.59 11.74 49.17 8.3 48.67 8.3 50.38 12.32 50.78 12.32 52.49 8.3 52.01 8.3"></polygon><polygon class="cls-1" points="53.28 8.3 53.28 12.29 56.19 12.29 56.19 11.88 53.73 11.88 53.73 10.48 55.9 10.48 55.9 10.07 53.73 10.07 53.73 8.71 56.16 8.71 56.16 8.3 53.28 8.3"></polygon><polygon class="cls-1" points="60.45 8.3 59 10.48 57.55 8.3 57.09 8.3 57.09 12.29 57.53 12.29 57.53 9.07 58.98 11.2 59.01 11.2 60.46 9.06 60.46 12.29 60.91 12.29 60.91 8.3 60.45 8.3"></polygon><polygon class="cls-1" points="62.04 8.3 62.04 12.29 64.95 12.29 64.95 11.88 62.49 11.88 62.49 10.48 64.66 10.48 64.66 10.07 62.49 10.07 62.49 8.71 64.92 8.71 64.92 8.3 62.04 8.3"></polygon><polygon class="cls-1" points="68.79 8.3 68.79 11.5 66.28 8.3 65.85 8.3 65.85 12.29 66.29 12.29 66.29 9.02 68.87 12.29 69.22 12.29 69.22 8.3 68.79 8.3"></polygon><polygon class="cls-1" points="70.07 8.3 70.07 8.72 71.41 8.72 71.41 12.29 71.86 12.29 71.86 8.72 73.2 8.72 73.2 8.3 70.07 8.3"></polygon><polygon class="cls-1" points="75.75 8.3 75.75 12.29 76.2 12.29 76.2 10.55 78.36 10.55 78.36 10.14 76.2 10.14 76.2 8.72 78.62 8.72 78.62 8.3 75.75 8.3"></polygon><path class="cls-1" d="M81.16,10.34c.6,0,1-.31,1-.82h0c0-.49-.38-.79-1-.79H79.94v1.62Zm-1.67-2H81.2a1.57,1.57,0,0,1,1.13.4,1.1,1.1,0,0,1,.31.79h0a1.17,1.17,0,0,1-1.08,1.16l1.22,1.63h-.55l-1.16-1.55H79.94v1.55h-.45Z"></path><path class="cls-1" d="M85.29,8.8l.91,2H84.37Zm-.21-.52-1.82,4h.46l.47-1.05h2.17l.47,1.05h.48l-1.82-4Z"></path><polygon class="cls-1" points="91.04 8.3 91.04 11.5 88.53 8.3 88.11 8.3 88.11 12.29 88.54 12.29 88.54 9.02 91.12 12.29 91.48 12.29 91.48 8.3 91.04 8.3"></polygon><path class="cls-1" d="M93.71,13l.44-.64a2,2,0,0,1-1.73-2h0a2,2,0,0,1,2-2.06A2.07,2.07,0,0,1,96,8.87l-.31.33a1.73,1.73,0,0,0-1.25-.55,1.56,1.56,0,0,0-1.54,1.63h0a1.57,1.57,0,0,0,1.54,1.65,1.73,1.73,0,0,0,1.29-.58l.3.29a2.07,2.07,0,0,1-1.5.7l-.38.82Z"></path><path class="cls-1" d="M98.49,8.8l.91,2H97.58Zm-.21-.52-1.82,4h.46l.47-1.05h2.17l.47,1.05h.48l-1.82-4Z"></path><rect class="cls-1" x="101.35" y="8.3" width="0.45" height="3.99"></rect><path class="cls-1" d="M102.7,11.71l.28-.33a1.9,1.9,0,0,0,1.37.56c.53,0,.89-.29.89-.68h0c0-.37-.2-.58-1-.76s-1.34-.5-1.34-1.15h0a1.18,1.18,0,0,1,1.31-1.09,2.08,2.08,0,0,1,1.4.49l-.26.35a1.75,1.75,0,0,0-1.15-.43c-.52,0-.85.29-.85.64h0c0,.38.2.59,1.08.77s1.3.52,1.3,1.13h0c0,.68-.57,1.13-1.36,1.13a2.34,2.34,0,0,1-1.63-.64"></path><path class="cls-1" d="M36.34,18.22c.66,0,1.09-.35,1.09-.88h0c0-.57-.43-.87-1.07-.87h-1v1.75ZM34.9,16h1.49c.9,0,1.49.48,1.49,1.26h0c0,.86-.72,1.3-1.57,1.3h-1V20H34.9Z"></path><path class="cls-1" d="M42.13,18.05h0a1.58,1.58,0,0,0-1.57-1.65A1.57,1.57,0,0,0,39,18h0a1.58,1.58,0,0,0,1.57,1.65,1.57,1.57,0,0,0,1.56-1.63m-3.6,0h0a2,2,0,1,1,4.07,0h0a2,2,0,1,1-4.07,0"></path><path class="cls-1" d="M43.48,18.36V16h.45v2.29a1.17,1.17,0,0,0,1.22,1.34c.73,0,1.2-.44,1.2-1.32V16h.45v2.28a1.66,1.66,0,1,1-3.32,0"></path><path class="cls-1" d="M49.54,18.08c.6,0,1-.31,1-.82h0c0-.49-.38-.79-1-.79H48.32v1.62Zm-1.67-2h1.71a1.58,1.58,0,0,1,1.13.4,1.1,1.1,0,0,1,.31.79h0a1.17,1.17,0,0,1-1.08,1.16L51.17,20h-.55l-1.16-1.55H48.32V20h-.45Z"></path><path class="cls-1" d="M53.63,18.36V16h.45v2.29a1.17,1.17,0,0,0,1.22,1.34c.73,0,1.2-.44,1.2-1.32V16H57v2.28a1.66,1.66,0,1,1-3.32,0"></path><polygon class="cls-1" points="60.95 16.05 60.95 19.24 58.44 16.05 58.02 16.05 58.02 20.03 58.46 20.03 58.46 16.77 61.03 20.03 61.39 20.03 61.39 16.05 60.95 16.05"></polygon><path class="cls-1" d="M65.9,18c.43,0,.67-.23.67-.56h0c0-.37-.26-.57-.69-.57H65V18ZM64.14,16H66a1.59,1.59,0,0,1,1.16.4,1.25,1.25,0,0,1,.34.91h0a1.24,1.24,0,0,1-.85,1.24l1,1.42h-1l-.85-1.28H65V20h-.88Z"></path><polygon class="cls-1" points="68.26 16.05 68.26 20.03 71.29 20.03 71.29 19.25 69.13 19.25 69.13 18.42 71.01 18.42 71.01 17.64 69.13 17.64 69.13 16.83 71.26 16.83 71.26 16.05 68.26 16.05"></polygon><polygon class="cls-1" points="74.78 16.05 73.74 18.85 72.7 16.05 71.73 16.05 73.34 20.06 74.12 20.06 75.73 16.05 74.78 16.05"></polygon><polygon class="cls-1" points="76.34 16.05 76.34 20.03 79.38 20.03 79.38 19.25 77.22 19.25 77.22 18.42 79.09 18.42 79.09 17.64 77.22 17.64 77.22 16.83 79.35 16.83 79.35 16.05 76.34 16.05"></polygon><polygon class="cls-1" points="82.84 16.05 82.84 18.5 80.97 16.05 80.16 16.05 80.16 20.03 81.03 20.03 81.03 17.5 82.96 20.03 83.7 20.03 83.7 16.05 82.84 16.05"></polygon><path class="cls-1" d="M84.6,18.33V16h.88V18.3c0,.65.33,1,.86,1s.86-.32.86-1V16h.88V18.3a1.6,1.6,0,0,1-1.75,1.8,1.58,1.58,0,0,1-1.73-1.77"></path><path class="cls-1" d="M91.55,16.84v2.4h.68a1.14,1.14,0,0,0,1.2-1.19h0a1.14,1.14,0,0,0-1.2-1.2ZM90.67,16h1.56a2,2,0,0,1,2.12,2h0a2,2,0,0,1-2.12,2H90.67Z"></path><polygon class="cls-1" points="95.13 16.05 95.13 20.03 98.16 20.03 98.16 19.25 96 19.25 96 18.42 97.88 18.42 97.88 17.64 96 17.64 96 16.83 98.13 16.83 98.13 16.05 95.13 16.05"></polygon><path class="cls-1" d="M102.52,18.39h-1v.88h1c.39,0,.62-.14.62-.43h0c0-.27-.2-.43-.65-.43m.43-1.16c0-.26-.2-.41-.57-.41h-.87v.84h.81c.39,0,.63-.12.63-.42ZM100.65,16h1.85a1.44,1.44,0,0,1,1,.35.92.92,0,0,1,.27.68h0a.93.93,0,0,1-.52.86,1,1,0,0,1,.75,1h0c0,.73-.59,1.09-1.49,1.09h-1.9Z"></path><path class="cls-1" d="M106.52,17.07l.53,1.29H106ZM106.13,16l-1.71,4h.89l.36-.89h1.69l.36.89h.92l-1.71-4Z"></path><path class="cls-1" d="M108.93,19.45l.52-.62a1.83,1.83,0,0,0,1.19.48c.36,0,.58-.14.58-.38h0c0-.22-.14-.34-.8-.51s-1.32-.43-1.32-1.22h0a1.25,1.25,0,0,1,1.4-1.2,2.31,2.31,0,0,1,1.48.51l-.46.66a1.87,1.87,0,0,0-1-.39c-.34,0-.51.15-.51.35h0c0,.26.17.35.86.52s1.26.5,1.26,1.2h0c0,.79-.6,1.24-1.46,1.24a2.53,2.53,0,0,1-1.69-.64"></path><polygon class="cls-1" points="112.85 16.05 112.85 20.03 115.89 20.03 115.89 19.25 113.72 19.25 113.72 18.42 115.6 18.42 115.6 17.64 113.72 17.64 113.72 16.83 115.86 16.83 115.86 16.05 112.85 16.05"></polygon></svg>